{
    "asset" : {
        "generator" : "Khronos glTF Blender I/O v1.6.16",
        "version" : "2.0"
    },
    "scene" : 0,
    "scenes" : [
        {
            "name" : "Scene",
            "nodes" : [
                0,
                1,
                2,
                3
            ]
        }
    ],
    "nodes" : [
        {
            "name" : "Light",
            "rotation" : [
                0.16907575726509094,
                0.7558803558349609,
                -0.27217137813568115,
                0.570947527885437
            ],
            "translation" : [
                4.356359004974365,
                4.671133995056152,
                -0.11990636587142944
            ]
        },
        {
            "name" : "Camera",
            "rotation" : [
                0.483536034822464,
                0.33687159419059753,
                -0.20870360732078552,
                0.7804827094078064
            ],
            "translation" : [
                7.358891487121582,
                4.958309173583984,
                6.925790786743164
            ]
        },
        {
            "mesh" : 0,
            "name" : "Suzanne",
            "translation" : [
                0.006957679986953735,
                0.04843916743993759,
                0.01093137264251709
            ]
        },
        {
            "mesh" : 1,
            "name" : "Suzanne.001",
            "translation" : [
                0.006957679986953735,
                0.04843916743993759,
                0.01093137264251709
            ]
        }
    ],
    "meshes" : [
        {
            "name" : "Suzanne",
            "primitives" : [
                {
                    "attributes" : {
                        "POSITION" : 0,
                        "NORMAL" : 1,
                        "TEXCOORD_0" : 2
                    },
                    "indices" : 3
                }
            ]
        },
        {
            "name" : "Suzanne.001",
            "primitives" : [
                {
                    "attributes" : {
                        "POSITION" : 4,
                        "NORMAL" : 5,
                        "TEXCOORD_0" : 6
                    },
                    "indices" : 7
                }
            ]
        }
    ],
    "accessors" : [
        {
            "bufferView" : 0,
            "componentType" : 5126,
            "count" : 1910,
            "max" : [
                1.3671875,
                0.984375,
                0.8515625
            ],
            "min" : [
                -1.3671875,
                -0.984375,
                -0.8515625
            ],
            "type" : "VEC3"
        },
        {
            "bufferView" : 1,
            "componentType" : 5126,
            "count" : 1910,
            "type" : "VEC3"
        },
        {
            "bufferView" : 2,
            "componentType" : 5126,
            "count" : 1910,
            "type" : "VEC2"
        },
        {
            "bufferView" : 3,
            "componentType" : 5123,
            "count" : 2832,
            "type" : "SCALAR"
        },
        {
            "bufferView" : 4,
            "componentType" : 5126,
            "count" : 56,
            "max" : [
                -0.140625,
                0.453125,
                0.828125
            ],
            "min" : [
                -0.5625,
                0.03125,
                0.671875
            ],
            "type" : "VEC3"
        },
        {
            "bufferView" : 5,
            "componentType" : 5126,
            "count" : 56,
            "type" : "VEC3"
        },
        {
            "bufferView" : 6,
            "componentType" : 5126,
            "count" : 56,
            "type" : "VEC2"
        },
        {
            "bufferView" : 7,
            "componentType" : 5123,
            "count" : 72,
            "type" : "SCALAR"
        }
    ],
    "bufferViews" : [
        {
            "buffer" : 0,
            "byteLength" : 22920,
            "byteOffset" : 0
        },
        {
            "buffer" : 0,
            "byteLength" : 22920,
            "byteOffset" : 22920
        },
        {
            "buffer" : 0,
            "byteLength" : 15280,
            "byteOffset" : 45840
        },
        {
            "buffer" : 0,
            "byteLength" : 5664,
            "byteOffset" : 61120
        },
        {
            "buffer" : 0,
            "byteLength" : 672,
            "byteOffset" : 66784
        },
        {
            "buffer" : 0,
            "byteLength" : 672,
            "byteOffset" : 67456
        },
        {
            "buffer" : 0,
            "byteLength" : 448,
            "byteOffset" : 68128
        },
        {
            "buffer" : 0,
            "byteLength" : 144,
            "byteOffset" : 68576
        }
    ],
    "buffers" : [
        {
            "byteLength" : 68720,
            "uri" : "monkey.bin"
        }
    ]
}
